<svg width="695" height="194" viewBox="0 0 695 194" fill="none" xmlns="http://www.w3.org/2000/svg">
<g filter="url(#filter0_d_62_10)">
<path d="M45.9867 38C56.4933 31.4 68.8667 28.6267 81.0133 27C80.9067 27.5733 80.68 28.7333 80.56 29.3067C72.28 35.32 69.0267 45.6 65.7467 54.8267C61.12 55.6667 55.64 57.6267 54.4133 62.7733C53.68 70.2533 60.04 75.7333 65.9333 79.08C66.0933 90.0533 65.44 101.04 65.8667 112.013C66.2133 120.693 65.08 129.813 68.5067 138.027C72.5467 144.387 78.6667 150.72 86.7067 150.973C92.7067 151.733 98.48 149.133 103.4 145.947C107.2 143.36 108.427 138.6 109.48 134.387C110.453 126.067 110.733 117.667 110.267 109.293C109.627 93.7467 109.907 78.1733 109.707 62.6133C109.627 56.1333 104.053 52.0533 100.067 47.72C111.36 44.5733 123.147 48.3467 134.68 47.72C131.48 52.0133 127.773 56.2 126.573 61.5733C125.307 68.6933 125.667 76 125.173 83.2C124.467 94.6533 126.64 106.133 125.067 117.573C123.84 127.653 124.427 138.88 118 147.427C113.2 153.413 106.493 158.493 98.7467 159.667C93.0667 157.373 86.7733 156.787 80.76 158C79.9733 160.2 79.6267 162.493 79.16 164.773C67.5733 164.427 55.0133 160.507 48.5733 150.173C41.3467 139.827 41.84 126.747 41.08 114.72C41.0667 98.6 40.9333 82.4667 40.72 66.3467C37.1333 61.5733 32.8533 57.24 27.4533 54.56C27.3333 54.08 27.12 53.1067 27 52.6133C33.5333 48 39.3333 42.4133 45.9867 38Z" fill="#F9D43E"/>
<path d="M367.107 57.8267C370.053 58.1733 373 58.6933 375.96 59.0533C381.427 59.7733 386.773 57.96 392.227 57.8667C391.267 60.3333 389.52 62.32 387.547 64.0267C386.947 71.1467 386.853 78.3067 387.187 85.44C387.72 99.68 387.32 113.933 387.667 128.173C387.827 131.227 389.667 135.587 393.32 135.307C399.547 135.28 406.307 136.6 412 133.347C415.387 131.747 417.947 128.987 420.533 126.36C421.933 133.72 418.747 140.56 417.44 147.64C414.84 145.987 412.307 144.253 409.733 142.56C400.76 141.587 391.72 141.733 382.693 141.667C377.027 141.547 371.24 142.28 365.707 140.707C367.987 138.56 371.107 136.867 372.027 133.653C374.16 126.667 373.853 119.227 373.213 112.04C372.88 97.9733 373.373 83.8933 372.933 69.8267C373.147 65.72 370.173 62.6667 367.373 60.1067C367.307 59.5333 367.173 58.3867 367.107 57.8267Z" fill="#F9D43E"/>
<path d="M251.893 58.2934C264.053 57.9201 276.227 60.0534 288.36 58.6667C292.893 57.4667 297.573 57.5067 302.2 58.1067C301.307 64.6801 299.627 71.1334 299 77.7467C297.613 74.2267 296.813 69.9201 293.187 67.9734C287.387 64.7734 280.307 64.6134 274.013 66.2934C273.387 76.3867 273.36 86.5334 274 96.6267C279.427 99.0134 285.44 98.3467 290.947 96.6267C292.267 94.4801 293.6 92.3334 294.907 90.1734C295.56 90.0267 296.853 89.7467 297.493 89.6001C295.987 97.3867 295.107 105.173 295.467 113.12C294.067 111.053 293.187 108.72 292.387 106.387C290.467 105.027 288.707 103.28 286.453 102.52C282.373 102.093 278.32 103 274.28 103.48C274.027 113 273.373 122.613 274.507 132.08C279.56 136.76 287 135.693 293.293 135.427C299.333 133.547 300.16 126.147 302.947 121.36C306.08 127.44 303.747 134.507 303.48 141.013C287.907 144.853 271.64 139.68 255.933 142.813C254.067 143.867 254.347 141.28 253.693 140.4C257.573 139.093 260.533 135.853 260.627 131.64C260.853 122.333 260.88 113.013 260.947 103.707C258.947 103.04 256.96 102.373 254.987 101.693C256.64 99.7867 258.48 98.0267 260.827 96.9867C261.52 90.0001 260.973 82.9867 260.667 76.0001C260.453 72.4934 260.413 68.8267 258.92 65.6001C256.507 63.2267 253.613 61.2934 251.893 58.2934Z" fill="#F9D43E"/>
<path fill-rule="evenodd" clip-rule="evenodd" d="M149.947 58.1733C143.293 58.36 136.653 58.72 130.013 59.0933C130.653 59.7218 131.341 60.3202 132.032 60.9209C133.863 62.5124 135.713 64.1204 136.72 66.3467C138.035 71.57 137.903 76.9413 137.771 82.2998C137.713 84.6558 137.655 87.0093 137.72 89.3467C137.851 94.143 137.641 98.9264 137.432 103.71C137.214 108.673 136.997 113.636 137.16 118.613C137.114 119.983 137.118 121.372 137.123 122.767C137.138 127.385 137.153 132.069 135.32 136.36C134.664 137.23 133.825 137.959 132.987 138.687C131.474 140.003 129.962 141.317 129.533 143.453C137.987 141.227 146.813 141.693 155.453 142.413C155.472 142.113 155.498 141.673 155.523 141.228C155.551 140.743 155.579 140.253 155.6 139.933C149.533 137.12 147.6 130.32 147.427 124.133C147.147 111.2 147.24 98.2533 147.813 85.3333C150.214 91.342 153.604 96.8685 156.983 102.377C157.113 102.589 157.243 102.801 157.373 103.013C159.425 106.786 161.556 110.531 163.689 114.282C171.012 127.154 178.365 140.079 182.64 154.307C183.733 154.2 184.84 154.093 185.933 154C186.762 144.245 186.86 134.456 186.959 124.668C187.057 114.926 187.155 105.185 187.973 95.48C188.466 92.2338 188.233 88.9914 187.999 85.7467C187.797 82.9275 187.594 80.1066 187.867 77.28C188.413 72.5733 189.147 67.88 189.933 63.2133C191.186 62.0803 192.426 60.9473 193.666 59.8143L193.667 59.8133C193.873 60.2532 194.089 60.6915 194.306 61.1307C195.167 62.875 196.035 64.6348 196.333 66.5733C197.112 76.6465 197.122 86.7551 197.131 96.8435C197.132 97.4646 197.133 98.0857 197.133 98.7067C197.233 102.511 197.441 106.316 197.649 110.121C198.078 117.984 198.508 125.849 197.987 133.72C196.213 136.267 193.813 138.24 191.107 139.733C191.253 141.12 191.413 142.52 191.573 143.907C192.369 143.475 193.157 143.035 193.948 142.594C194.231 142.436 194.515 142.278 194.8 142.12C200.826 141.304 206.88 141.573 212.932 141.843C219.334 142.129 225.733 142.414 232.093 141.413C235.649 141.066 238.128 138.415 240.457 135.924C240.809 135.547 241.158 135.174 241.507 134.813C250.453 124.147 255.16 110.173 255 96.28C254.08 88.44 252.813 80.5333 249.667 73.2267C244.36 63.5733 232.947 60.0133 222.76 58.32C219.642 57.7229 216.537 58.1063 213.433 58.4894C210.3 58.8763 207.168 59.263 204.027 58.64C197.758 57.6329 191.461 57.9377 185.156 58.243C180.693 58.459 176.225 58.6753 171.76 58.4267C173.24 60.7467 175.307 62.5733 177.493 64.2C179.127 68.1656 179.55 72.3968 179.973 76.6287C180.171 78.6148 180.37 80.601 180.693 82.56C181.822 90.2933 181.769 98.1117 181.715 105.92C181.701 107.886 181.688 109.851 181.693 111.813C180.693 111.627 179.693 111.453 178.693 111.293C175.885 106.253 172.965 101.27 170.044 96.2863C162.774 83.8803 155.502 71.4713 149.947 58.1733ZM235.76 71.16C230.493 62.6133 219.253 61.52 210.253 63.16C210.214 68.682 210.16 74.2039 210.106 79.7258C209.956 94.9106 209.807 110.095 209.973 125.28C210.019 125.842 210.032 126.434 210.044 127.036C210.096 129.434 210.151 131.993 212.293 133.453C220.333 137.507 231.853 135.013 236.067 126.627C241.947 116.6 241.373 104.467 240.52 93.2934C239.978 90.8077 239.8 88.2242 239.623 85.644C239.271 80.5429 238.921 75.4545 235.76 71.16Z" fill="#F9D43E"/>
<path fill-rule="evenodd" clip-rule="evenodd" d="M312.793 58.4292C309.782 58.2525 306.771 58.0759 304.107 59.6801C304.972 60.4463 306.06 61.122 307.167 61.8097C310.067 63.6111 313.099 65.4952 312.627 69.3067C312.691 72.8599 312.938 76.4058 313.186 79.9497C313.605 85.9675 314.025 91.9799 313.547 98.0134C312.444 98.2979 311.245 98.4547 310.034 98.613C306.65 99.0557 303.176 99.51 301.467 102.8L302.332 102.965C305.962 103.655 309.58 104.344 313.187 105.147C313.206 108.703 313.113 112.255 313.019 115.808C312.923 119.462 312.826 123.116 312.853 126.773C312.834 127.216 312.823 127.663 312.813 128.112C312.765 130.141 312.716 132.216 311.853 134.093C311.209 135.736 309.933 136.893 308.657 138.051C307.291 139.289 305.926 140.527 305.333 142.36C310.131 141.94 314.941 141.999 319.75 142.058C323.947 142.109 328.145 142.161 332.333 141.893C331.64 139.28 329.627 137.587 327.507 136.133C325.064 128.715 325.44 120.911 325.814 113.171C325.936 110.644 326.057 108.124 326.08 105.627C326.62 105.628 327.174 105.62 327.735 105.612C331.84 105.553 336.349 105.487 339 109.147C343.456 113.465 345.412 119.111 347.372 124.771C349.013 129.508 350.657 134.255 353.773 138.24C357.293 143.307 361.36 148.507 367.587 150.293C368.101 147.582 366.671 145.553 365.218 143.492C364.184 142.026 363.139 140.543 362.773 138.787C359.947 128.24 359.08 117.147 359.72 106.267C355.427 106.573 350.507 106.107 348.813 101.427C349.761 98.6687 351.801 96.5736 353.851 94.4676C355.954 92.3077 358.068 90.1364 359.027 87.2267C360.893 79.5734 360.72 70.3067 353.92 65.0534C344.14 57.7249 331.315 58.0758 319.578 58.397C318.865 58.4165 318.157 58.4358 317.453 58.4534C315.932 58.6133 314.363 58.5212 312.793 58.4292ZM346.2 72.7601C343.253 65.2667 333.973 60.9467 326.387 63.9067C325.459 73.2549 325.716 82.7139 325.973 92.1406C326.037 94.5054 326.101 96.8682 326.147 99.2267C326.838 99.2922 327.541 99.3791 328.25 99.4668C331.727 99.8967 335.35 100.345 338.44 98.3734C347.52 93.7734 349.427 81.5867 346.2 72.7601Z" fill="#F9D43E"/>
<path fill-rule="evenodd" clip-rule="evenodd" d="M439.973 61.32C447.56 57.3067 456.533 55.2 465.04 56.9467C472.8 59.9333 480.133 64.28 486.2 69.9867C494.093 78.16 497.413 89.8933 496.813 101.08C498.187 100.947 499.56 100.827 500.947 100.72C501.707 99.76 502.48 98.8 503.267 97.84C503.493 88.32 503.2 78.7733 501.733 69.3467C501.274 66.1589 499.016 64.0713 496.751 61.9781C495.464 60.7883 494.175 59.5966 493.213 58.2C506.413 58.2 519.627 58.2933 532.76 59.72C538.12 61.08 543.707 63.08 547.467 67.3334C553.107 73.3067 554.413 83.16 550.013 90.2C548.88 92.3999 547.175 94.1516 545.469 95.9052C544.145 97.2656 542.82 98.6272 541.76 100.2C540.947 102.333 542.32 104.24 543.92 105.533C545.858 107.48 548.547 107.419 551.171 107.359C552.212 107.335 553.243 107.311 554.213 107.413C553.52 113.359 553.739 119.329 553.958 125.291C554.025 127.124 554.093 128.956 554.133 130.787C554.169 137.143 556.906 142.927 559.577 148.57L559.578 148.571L559.578 148.573L559.579 148.574L559.58 148.576C559.927 149.31 560.274 150.043 560.613 150.773C560.393 150.867 560.063 151.003 559.733 151.14C559.403 151.277 559.073 151.413 558.853 151.507C554.88 149.04 550.827 146.507 548.053 142.653C543.678 137.35 541.302 131.043 538.922 124.724C536.821 119.144 534.716 113.555 531.227 108.64C526.333 106.4 520.96 105.493 515.613 106.267C515.28 113.507 515.32 120.76 515.48 128C515.427 131.213 516.747 134.173 518.12 137.013C520.147 137.987 522.147 139.013 524.133 140.093C520.779 142.35 516.867 142.158 513.012 141.969C511.809 141.91 510.613 141.851 509.44 141.867C505.915 141.767 502.399 142.027 498.892 142.286L498.889 142.286C498.179 142.338 497.469 142.391 496.76 142.44C496.793 142.133 496.85 141.673 496.907 141.213C496.963 140.753 497.02 140.293 497.053 139.987C499.867 137 502.413 133.52 502.72 129.28C503.493 121.347 503.733 113.307 503.04 105.36C501.296 104.857 499.5 104.59 497.716 104.324C497.468 104.288 497.22 104.251 496.973 104.213C495.093 112.347 492.92 120.76 487.547 127.387C481.24 135.107 473.08 142.453 462.76 143.587C455.4 145.173 447.853 143.373 441.12 140.36C434.173 136.027 427.28 131.12 422.747 124.173C411.88 102.827 419.44 73.9334 439.973 61.32ZM515.613 66.3067C523.72 62.96 535.067 65.8 538.773 74.28C540.693 80.88 539.96 88.1333 536.6 94.1467C531.307 99.6933 522.213 102.987 515.453 98.04C515.133 87.4667 515.08 76.8667 515.613 66.3067ZM435.784 72.402C435.254 72.9871 434.727 73.5676 434.2 74.1334C429.307 83.6667 429.187 94.8267 431.227 105.133C434.147 116.067 439.32 127 448.64 133.907C457.227 138.72 468.613 137.587 475.533 130.427C478.987 126.253 482.4 121.773 484.2 116.627C485.333 106.24 484.987 95.6 482.64 85.4C479.933 78.2533 476.507 70.5733 469.467 66.7333C463.267 62.3867 455.347 62.4933 448.133 63.1733C442.959 64.4931 439.282 68.5467 435.784 72.402Z" fill="#F9D43E"/>
<path fill-rule="evenodd" clip-rule="evenodd" d="M588.827 43.7334C590.379 42.8331 591.913 41.8583 593.453 40.8799C598.526 37.6564 603.661 34.3939 609.707 33.6267C609.819 34.2586 609.907 34.9004 609.994 35.5432C610.248 37.4097 610.504 39.2874 611.387 40.9734C615.918 44.9675 621.837 45.4068 627.645 45.8379C629.767 45.9954 631.874 46.1518 633.893 46.48C639.732 48.4602 643.836 52.9004 647.936 57.3374C650.324 59.9216 652.711 62.5046 655.44 64.6C656.91 65.0394 658.447 65.0084 659.981 64.9775C660.729 64.9625 661.475 64.9474 662.213 64.9867C662.103 65.8075 661.97 66.6367 661.836 67.4695C661.222 71.2907 660.592 75.2043 662.147 78.8934C665.96 89.0267 668.453 99.9201 667.133 110.8C666.2 117.613 664.027 124.2 661.52 130.587C659.883 134.414 660.282 138.604 660.669 142.672C660.74 143.409 660.809 144.141 660.867 144.867C654.987 141.812 648.776 144.945 643.409 147.653L643.404 147.655C643.174 147.771 642.946 147.886 642.72 148C639.617 149.418 637.711 152.12 635.807 154.817C634.577 156.56 633.349 158.301 631.8 159.693C629.714 159.639 627.714 159.048 625.713 158.457C624.287 158.036 622.859 157.614 621.4 157.387C608 155.467 594.56 158.267 581.68 161.84C587.333 156.747 593.84 152.307 601.4 150.667L601.394 150.663C600.289 149.944 599.185 149.225 598.08 148.52C597.126 148.893 596.169 149.259 595.211 149.626C590.099 151.583 584.969 153.547 580.32 156.467C578.033 157.988 575.45 158.839 572.871 159.688C571.585 160.111 570.3 160.534 569.053 161.04C561.547 163.6 553.867 166.107 545.88 166.373C548.536 163.36 552.158 161.71 555.774 160.063C559.727 158.263 563.673 156.465 566.347 152.893C571.673 146.538 571.536 138.148 571.406 130.135C571.373 128.079 571.34 126.046 571.4 124.08C571.92 105.373 571.627 86.6 570.04 67.9467C569.787 64.7467 568.747 59.9067 564.84 59.6534C560.765 61.6364 560.041 65.9114 559.341 70.0481C559.095 71.5022 558.851 72.9391 558.467 74.2534C555.953 68.8396 556.741 62.6771 557.485 56.8543C557.589 56.0374 557.693 55.2272 557.787 54.4267C568.987 54.3734 579.507 49.5867 588.827 43.7334ZM592.92 55.7734C607.96 52.44 625.813 57.5867 633.907 71.44C636.107 76.16 638.547 80.7734 642.093 84.6534C642.09 88.5276 642.146 92.4071 642.202 96.2878C642.398 109.809 642.593 123.345 640.293 136.72C636.772 137.481 633.969 139.54 631.16 141.603C628.948 143.228 626.733 144.855 624.16 145.853C620.528 147.477 616.628 147.993 612.727 148.51C609.997 148.871 607.267 149.232 604.627 149.973C603.52 149.373 602.427 148.773 601.36 148.16L603.72 146.693C602.667 146.12 601.627 145.547 600.587 144.973C593.333 146.453 586.36 140.88 585.547 133.693C584.102 120.34 584.395 106.924 584.688 93.5082C584.844 86.3622 585 79.2163 584.893 72.08C584.84 65.9334 587.013 58.6934 592.92 55.7734ZM645.92 83.94C645.65 84.2567 645.38 84.5734 645.2 84.7867C644.556 91.6016 644.626 98.4463 644.697 105.293C644.775 112.913 644.853 120.535 643.947 128.12C643.664 129.969 644.038 131.801 644.409 133.622C644.493 134.033 644.577 134.443 644.653 134.853C645.093 134.581 645.555 134.324 646.021 134.066C647.672 133.15 649.363 132.211 650.227 130.453C650.741 129.589 651.275 128.728 651.812 127.864C654.338 123.797 656.904 119.665 657.52 114.827C658.28 108.613 658.387 102.2 656.893 96.08C655.64 90.4534 651.04 86.4267 646.64 83.0934C646.46 83.3067 646.19 83.6234 645.92 83.94Z" fill="#F9D43E"/>
</g>
<defs>
<filter id="filter0_d_62_10" x="0" y="0" width="694.49" height="193.373" filterUnits="userSpaceOnUse" color-interpolation-filters="sRGB">
<feFlood flood-opacity="0" result="BackgroundImageFix"/>
<feColorMatrix in="SourceAlpha" type="matrix" values="0 0 0 0 0 0 0 0 0 0 0 0 0 0 0 0 0 0 127 0" result="hardAlpha"/>
<feOffset/>
<feGaussianBlur stdDeviation="13.5"/>
<feComposite in2="hardAlpha" operator="out"/>
<feColorMatrix type="matrix" values="0 0 0 0 0.682353 0 0 0 0 0.333333 0 0 0 0 0.0352941 0 0 0 0.25 0"/>
<feBlend mode="normal" in2="BackgroundImageFix" result="effect1_dropShadow_62_10"/>
<feBlend mode="normal" in="SourceGraphic" in2="effect1_dropShadow_62_10" result="shape"/>
</filter>
</defs>
</svg>
