<svg width="16" height="16" viewBox="0 0 16 16" fill="none" xmlns="http://www.w3.org/2000/svg">
<path fill-rule="evenodd" clip-rule="evenodd" d="M0.171583 15.8284C0.366845 16.0237 0.683427 16.0237 0.878689 15.8284L4.97488 11.7322L4.97488 14.5C4.97488 14.7762 5.19874 15 5.47488 15C5.75103 15 5.97488 14.7762 5.97488 14.5L5.97488 10.5251C5.97488 10.249 5.75103 10.0251 5.47488 10.0251L1.50005 10.0251C1.22391 10.0251 1.00005 10.249 1.00005 10.5251C1.00005 10.8013 1.22391 11.0251 1.50005 11.0251L4.26778 11.0251L0.171583 15.1213C-0.0236795 15.3166 -0.0236794 15.6332 0.171583 15.8284Z" fill="black"/>
<path fill-rule="evenodd" clip-rule="evenodd" d="M15.8284 0.17157C15.6332 -0.0236919 15.3166 -0.023692 15.1213 0.17157L11.0251 4.26776L11.0251 1.49999C11.0251 1.22385 10.8013 0.99999 10.5251 0.99999C10.249 0.99999 10.0251 1.22385 10.0251 1.49999L10.0251 5.47487C10.0251 5.75101 10.249 5.97487 10.5251 5.97487L14.5 5.97487C14.7761 5.97487 15 5.75101 15 5.47487C15 5.19873 14.7761 4.97487 14.5 4.97487L11.7323 4.97487L15.8284 0.878677C16.0237 0.683415 16.0237 0.366832 15.8284 0.17157Z" fill="black"/>
</svg>
