<svg width="16" height="16" viewBox="0 0 16 16" fill="none" xmlns="http://www.w3.org/2000/svg">
<path d="M4.15811 12.0256C4.42009 12.1129 4.56167 12.396 4.47434 12.658L3.97434 14.158C3.88702 14.42 3.60386 14.5616 3.34189 14.4742C3.07991 14.3869 2.93833 14.1038 3.02566 13.8418L3.52566 12.3418C3.61298 12.0798 3.89614 11.9382 4.15811 12.0256ZM10.1581 12.0256C10.4201 12.1129 10.5617 12.396 10.4743 12.658L9.97434 14.158C9.88702 14.42 9.60386 14.5616 9.34189 14.4742C9.07992 14.3869 8.93833 14.1038 9.02566 13.8418L9.52566 12.3418C9.61298 12.0798 9.89614 11.9382 10.1581 12.0256ZM6.65811 13.5256C6.92009 13.6129 7.06167 13.896 6.97434 14.158L6.47434 15.658C6.38702 15.92 6.10386 16.0616 5.84189 15.9742C5.57992 15.8869 5.43833 15.6038 5.52566 15.3418L6.02566 13.8418C6.11298 13.5798 6.39614 13.4382 6.65811 13.5256ZM12.6581 13.5256C12.9201 13.6129 13.0617 13.896 12.9743 14.158L12.4743 15.658C12.387 15.92 12.1039 16.0616 11.8419 15.9742C11.5799 15.8869 11.4383 15.6038 11.5257 15.3418L12.0257 13.8418C12.113 13.5798 12.3961 13.4382 12.6581 13.5256Z" fill="black"/>
<path d="M13.4053 5.02704C12.9524 2.7311 10.9287 0.999893 8.5 0.999893C6.44002 0.999893 4.67207 2.24535 3.90606 4.02325C3.77271 4.00782 3.63721 3.99989 3.5 3.99989C1.567 3.99989 0 5.5669 0 7.49989C0 9.43289 1.567 10.9999 3.5 10.9999L13 10.9999C14.6569 10.9999 16 9.65675 16 7.99989C16 6.4805 14.8705 5.22493 13.4053 5.02704ZM8.5 1.99989C10.5586 1.99989 12.2546 3.55545 12.4756 5.55496C12.5037 5.80933 12.7193 6.00141 12.9752 6.00003L13 5.99989L13.0013 5.99989C14.1053 6.00058 15 6.89575 15 7.99989C15 9.10446 14.1046 9.99989 13 9.99989L3.5 9.99989C2.11929 9.99989 1 8.88061 1 7.49989C1 6.11918 2.11929 4.99989 3.5 4.99989C3.70933 4.99989 3.91197 5.02551 4.10527 5.07354C4.35911 5.13662 4.61867 4.9934 4.70065 4.74502C5.22714 3.14998 6.72992 1.99989 8.5 1.99989Z" fill="black"/>
</svg>
