<svg width="16" height="16" viewBox="0 0 16 16" fill="none" xmlns="http://www.w3.org/2000/svg">
<path d="M2.65813 11.0257C2.9201 11.1131 3.06168 11.3962 2.97436 11.6582L2.47436 13.1582C2.38703 13.4202 2.10387 13.5617 1.8419 13.4744C1.57993 13.3871 1.43835 13.1039 1.52567 12.842L2.02567 11.342C2.113 11.08 2.39616 10.9384 2.65813 11.0257ZM12.1581 11.0257C12.4201 11.1131 12.5617 11.3962 12.4744 11.6582L11.9744 13.1582C11.887 13.4202 11.6039 13.5617 11.3419 13.4744C11.0799 13.3871 10.9383 13.1039 11.0257 12.842L11.5257 11.342C11.613 11.08 11.8962 10.9384 12.1581 11.0257ZM4.65813 12.5257C4.9201 12.6131 5.06168 12.8962 4.97436 13.1582L4.47436 14.6582C4.38703 14.9202 4.10387 15.0617 3.8419 14.9744C3.57993 14.8871 3.43835 14.6039 3.52567 14.342L4.02567 12.842C4.113 12.58 4.39616 12.4384 4.65813 12.5257ZM14.1581 12.5257C14.4201 12.6131 14.5617 12.8962 14.4744 13.1582L13.9744 14.6582C13.887 14.9202 13.6039 15.0617 13.3419 14.9744C13.0799 14.8871 12.9383 14.6039 13.0257 14.342L13.5257 12.842C13.613 12.58 13.8962 12.4384 14.1581 12.5257Z" fill="black"/>
<path d="M7.0528 11.2765C7.1375 11.1071 7.31063 11.0001 7.50001 11.0001H8.50001C8.66074 11.0001 8.81166 11.0773 8.90563 11.2077C8.99961 11.3381 9.02518 11.5057 8.97435 11.6582L8.69373 12.5001H9.50001C9.69222 12.5001 9.8674 12.6102 9.95066 12.7835C10.0339 12.9567 10.0105 13.1623 9.89045 13.3124L7.89045 15.8124C7.74361 15.996 7.48874 16.0525 7.2781 15.9481C7.06746 15.8438 6.95793 15.6068 7.01494 15.3788L7.35962 14.0001L6.50001 14.0001C6.32672 14.0001 6.16579 13.9103 6.07469 13.7629C5.98358 13.6155 5.9753 13.4315 6.0528 13.2765L7.0528 11.2765Z" fill="black"/>
<path d="M13.4053 4.02721C12.9524 1.73127 10.9287 6.10352e-05 8.5 6.10352e-05C6.44002 6.10352e-05 4.67207 1.24552 3.90606 3.02342C3.77271 3.00798 3.63721 3.00006 3.5 3.00006C1.567 3.00006 0 4.56706 0 6.50006C0 8.43306 1.567 10.0001 3.5 10.0001L13 10.0001C14.6569 10.0001 16 8.65692 16 7.00006C16 5.48067 14.8705 4.22509 13.4053 4.02721Z" fill="black"/>
</svg>
