<svg width="16" height="16" viewBox="0 0 16 16" fill="none" xmlns="http://www.w3.org/2000/svg">
<path d="M2.65811 11.0257C2.92009 11.113 3.06167 11.3962 2.97434 11.6581L2.47434 13.1581C2.38702 13.4201 2.10386 13.5617 1.84189 13.4744C1.57991 13.387 1.43833 13.1039 1.52566 12.8419L2.02566 11.3419C2.11298 11.0799 2.39614 10.9384 2.65811 11.0257ZM12.1581 11.0257C12.4201 11.113 12.5617 11.3962 12.4743 11.6581L11.9743 13.1581C11.887 13.4201 11.6039 13.5617 11.3419 13.4744C11.0799 13.387 10.9383 13.1039 11.0257 12.8419L11.5257 11.3419C11.613 11.0799 11.8961 10.9384 12.1581 11.0257ZM4.65811 12.5257C4.92009 12.613 5.06167 12.8962 4.97434 13.1581L4.47434 14.6581C4.38702 14.9201 4.10386 15.0617 3.84189 14.9744C3.57991 14.887 3.43833 14.6039 3.52566 14.3419L4.02566 12.8419C4.11298 12.5799 4.39614 12.4384 4.65811 12.5257ZM14.1581 12.5257C14.4201 12.613 14.5617 12.8962 14.4743 13.1581L13.9743 14.6581C13.887 14.9201 13.6039 15.0617 13.3419 14.9744C13.0799 14.887 12.9383 14.6039 13.0257 14.3419L13.5257 12.8419C13.613 12.5799 13.8961 12.4384 14.1581 12.5257Z" fill="black"/>
<path d="M13.4053 4.02718C12.9524 1.73124 10.9287 3.05176e-05 8.5 3.05176e-05C6.44002 3.05176e-05 4.67207 1.24549 3.90606 3.02338C3.77271 3.00795 3.63721 3.00003 3.5 3.00003C1.567 3.00003 0 4.56703 0 6.50003C0 8.43303 1.567 10 3.5 10L13 10C14.6569 10 16 8.65689 16 7.00003C16 5.48064 14.8705 4.22506 13.4053 4.02718ZM8.5 1.00003C10.5586 1.00003 12.2546 2.55559 12.4756 4.5551C12.5037 4.80946 12.7193 5.00154 12.9752 5.00017L13 5.00003L13.0013 5.00003C14.1053 5.00072 15 5.89589 15 7.00003C15 8.1046 14.1046 9.00003 13 9.00003L3.5 9.00003C2.11929 9.00003 1 7.88074 1 6.50003C1 5.11932 2.11929 4.00003 3.5 4.00003C3.70933 4.00003 3.91197 4.02565 4.10527 4.07368C4.35911 4.13676 4.61867 3.99354 4.70065 3.74516C5.22714 2.15011 6.72992 1.00003 8.5 1.00003Z" fill="black"/>
<path d="M7.05279 11.2764C7.13748 11.107 7.31061 11 7.5 11H8.5C8.66072 11 8.81165 11.0773 8.90562 11.2077C8.9996 11.3381 9.02517 11.5057 8.97434 11.6581L8.69371 12.5H9.5C9.6922 12.5 9.86739 12.6102 9.95065 12.7834C10.0339 12.9567 10.0105 13.1623 9.89043 13.3124L7.89043 15.8124C7.74359 15.9959 7.48873 16.0524 7.27809 15.9481C7.06745 15.8438 6.95792 15.6068 7.01493 15.3788L7.35961 14L6.5 14C6.32671 14 6.16578 13.9103 6.07467 13.7629C5.98357 13.6155 5.97529 13.4314 6.05279 13.2764L7.05279 11.2764Z" fill="black"/>
</svg>
