<svg width="16" height="16" viewBox="0 0 16 16" fill="none" xmlns="http://www.w3.org/2000/svg">
<path fill-rule="evenodd" clip-rule="evenodd" d="M7.33382 8.43398V14.25H8.6175V8.43398H10.8047L10.9944 7.25977H8.6175V5.56367C8.6175 4.80514 8.74085 4.07996 9.20911 3.55615C9.69749 3.00984 10.3972 2.85859 11.1121 2.85859C11.1587 2.85859 11.2047 2.85874 11.25 2.85905V1.82926C11.209 1.82331 11.1665 1.81747 11.1227 1.81178C10.8263 1.77332 10.5301 1.75 10.3322 1.75C9.18106 1.75 8.49045 2.05611 8.06487 2.55142C7.61816 3.07133 7.33382 3.94665 7.33382 5.35859V7.25977H5.75V8.43398H7.33382ZM5 6.50977H6.58382V5.35859C6.58382 2.38086 7.76688 1 10.3322 1C10.8169 1 11.6568 1.10938 12 1.21602V3.64141C11.8396 3.62217 11.5771 3.61139 11.25 3.60907C11.2052 3.60875 11.1592 3.60859 11.1121 3.60859C9.85465 3.60859 9.3675 4.15 9.3675 5.56367V6.50977H11.8752L11.4433 9.18398H9.3675V15H6.58382V9.18398H5V6.50977Z" fill="black"/>
</svg>
