<svg width="16" height="16" viewBox="0 0 16 16" fill="none" xmlns="http://www.w3.org/2000/svg">
<path d="M6.00154 5.5C6.00154 6.32843 5.32997 7 4.50154 7C3.67311 7 3.00154 6.32843 3.00154 5.5C3.00154 4.67157 3.67311 4 4.50154 4C5.32997 4 6.00154 4.67157 6.00154 5.5Z" fill="black"/>
<path d="M2.00154 1C0.896972 1 0.00154114 1.89543 0.00154114 3V13C0.00154114 14.1046 0.896972 15 2.00154 15H14.0015C15.1061 15 16.0015 14.1046 16.0015 13V3C16.0015 1.89543 15.1061 1 14.0015 1H2.00154ZM14.0015 2C14.5538 2 15.0015 2.44772 15.0015 3V9.50001L11.2251 7.5528C11.0327 7.45655 10.8002 7.49428 10.648 7.64646L6.93783 11.3566L4.27889 9.58399C4.08058 9.45178 3.81652 9.47793 3.64799 9.64646L1.00154 12V3C1.00154 2.44772 1.44926 2 2.00154 2H14.0015Z" fill="black"/>
</svg>
