<svg width="16" height="16" viewBox="0 0 16 16" fill="none" xmlns="http://www.w3.org/2000/svg">
<path fill-rule="evenodd" clip-rule="evenodd" d="M4.5 14C3.67157 14 3 13.3284 3 12.5V3.5C3 2.67157 3.67157 2 4.5 2C5.32843 2 6 2.67157 6 3.5V12.5C6 13.3284 5.32843 14 4.5 14ZM5 3.5V12.5C5 12.7761 4.77614 13 4.5 13C4.22386 13 4 12.7761 4 12.5V3.5C4 3.22386 4.22386 3 4.5 3C4.77614 3 5 3.22386 5 3.5Z" fill="black"/>
<path fill-rule="evenodd" clip-rule="evenodd" d="M11.5 14C10.6716 14 10 13.3284 10 12.5V3.5C10 2.67157 10.6716 2 11.5 2C12.3284 2 13 2.67157 13 3.5V12.5C13 13.3284 12.3284 14 11.5 14ZM12 3.5V12.5C12 12.7761 11.7761 13 11.5 13C11.2239 13 11 12.7761 11 12.5V3.5C11 3.22386 11.2239 3 11.5 3C11.7761 3 12 3.22386 12 3.5Z" fill="black"/>
</svg>
