<svg width="16" height="16" viewBox="0 0 16 16" fill="none" xmlns="http://www.w3.org/2000/svg">
<path d="M7.49609 11.8184C8.11825 11.8184 8.59082 12.2919 8.59082 12.9092C8.59078 13.5264 8.11822 14 7.49609 14C6.89052 14 6.40923 13.5265 6.40918 12.9092C6.40918 12.2918 6.89049 11.8184 7.49609 11.8184ZM7.82422 2C10.0739 2.00008 11.5906 3.36048 11.5908 5.21484C11.5908 6.55796 10.9264 7.50286 9.80176 8.1875C8.70248 8.84607 8.38681 9.30582 8.38672 10.1982V10.2275C8.38657 10.5035 8.16269 10.7274 7.88672 10.7275H7.11621C6.84247 10.7275 6.61958 10.5071 6.61621 10.2334L6.61426 10.0342C6.57164 8.81219 7.09118 8.03195 8.25879 7.32129C9.28998 6.68865 9.65625 6.18561 9.65625 5.29297C9.65607 4.31387 8.89784 3.5948 7.73047 3.59473C6.72156 3.59473 6.01953 4.12443 5.79199 4.99707C5.72545 5.25149 5.51397 5.45801 5.25098 5.45801H4.47461C4.19082 5.45797 3.96083 5.22063 4.00586 4.94043C4.27902 3.2413 5.57536 2 7.82422 2Z" fill="black"/>
</svg>
