<svg width="16" height="16" viewBox="0 0 16 16" fill="none" xmlns="http://www.w3.org/2000/svg">
<path fill-rule="evenodd" clip-rule="evenodd" d="M11.5 1.5C10.6716 1.5 10 2.17157 10 3C10 3.82843 10.6716 4.5 11.5 4.5C12.3284 4.5 13 3.82843 13 3C13 2.17157 12.3284 1.5 11.5 1.5ZM9.05001 2.5C9.28164 1.35888 10.2905 0.5 11.5 0.5C12.7095 0.5 13.7184 1.35888 13.95 2.5H16V3.5H13.95C13.7184 4.64112 12.7095 5.5 11.5 5.5C10.2905 5.5 9.28164 4.64112 9.05001 3.5H0V2.5H9.05001ZM4.5 6.5C3.67157 6.5 3 7.17157 3 8C3 8.82843 3.67157 9.5 4.5 9.5C5.32843 9.5 6 8.82843 6 8C6 7.17157 5.32843 6.5 4.5 6.5ZM2.05001 7.5C2.28164 6.35888 3.29052 5.5 4.5 5.5C5.70948 5.5 6.71836 6.35888 6.94999 7.5H16V8.5H6.94999C6.71836 9.64112 5.70948 10.5 4.5 10.5C3.29052 10.5 2.28164 9.64112 2.05001 8.5H0V7.5H2.05001ZM11.5 11.5C10.6716 11.5 10 12.1716 10 13C10 13.8284 10.6716 14.5 11.5 14.5C12.3284 14.5 13 13.8284 13 13C13 12.1716 12.3284 11.5 11.5 11.5ZM9.05001 12.5C9.28164 11.3589 10.2905 10.5 11.5 10.5C12.7095 10.5 13.7184 11.3589 13.95 12.5H16V13.5H13.95C13.7184 14.6411 12.7095 15.5 11.5 15.5C10.2905 15.5 9.28164 14.6411 9.05001 13.5H0V12.5H9.05001Z" fill="black"/>
</svg>
