<svg width="16" height="16" viewBox="0 0 16 16" fill="none" xmlns="http://www.w3.org/2000/svg">
<path d="M8.00001 16C7.72387 16 7.50001 15.7761 7.50001 15.5V14.2071L6.85357 14.8536C6.65831 15.0488 6.34172 15.0488 6.14646 14.8536C5.9512 14.6583 5.9512 14.3417 6.14646 14.1464L7.50001 12.7929L7.50001 8.86601L4.09924 10.8295L3.6038 12.6784C3.53233 12.9452 3.25816 13.1035 2.99143 13.032C2.72469 12.9605 2.5664 12.6864 2.63787 12.4196L2.87449 11.5366L1.75481 12.183C1.51567 12.3211 1.20987 12.2391 1.0718 12C0.933728 11.7608 1.01567 11.4551 1.25481 11.317L2.37449 10.6705L1.49143 10.4339C1.22469 10.3625 1.0664 10.0883 1.13787 9.82155C1.20935 9.55482 1.48351 9.39652 1.75025 9.468L3.59924 9.96343L7.00001 7.99999L3.59926 6.03656L1.75027 6.532C1.48354 6.60347 1.20937 6.44518 1.1379 6.17844C1.06643 5.91171 1.22472 5.63754 1.49145 5.56607L2.37451 5.32946L1.25484 4.68301C1.01569 4.54494 0.933753 4.23914 1.07182 4C1.2099 3.76085 1.51569 3.67891 1.75484 3.81698L2.87451 4.46343L2.6379 3.58037C2.56643 3.31363 2.72472 3.03947 2.99145 2.968C3.25819 2.89652 3.53235 3.05482 3.60382 3.32155L4.09926 5.17054L7.50001 7.13396L7.50001 3.20711L6.14646 1.85355C5.9512 1.65829 5.9512 1.34171 6.14646 1.14645C6.34172 0.951184 6.65831 0.951184 6.85357 1.14645L7.50001 1.79289V0.5C7.50001 0.223858 7.72387 0 8.00001 0C8.27616 0 8.50001 0.223858 8.50001 0.5V1.79289L9.14646 1.14645C9.34172 0.951184 9.65831 0.951184 9.85357 1.14645C10.0488 1.34171 10.0488 1.65829 9.85357 1.85355L8.50001 3.20711L8.50001 7.13396L11.9008 5.17054L12.3962 3.32155C12.4677 3.05482 12.7418 2.89652 13.0086 2.968C13.2753 3.03947 13.4336 3.31363 13.3621 3.58037L13.1255 4.46343L14.2452 3.81698C14.4843 3.67891 14.7901 3.76085 14.9282 4C15.0663 4.23914 14.9843 4.54494 14.7452 4.68301L13.6255 5.32946L14.5086 5.56607C14.7753 5.63754 14.9336 5.91171 14.8621 6.17844C14.7907 6.44518 14.5165 6.60347 14.2498 6.532L12.4008 6.03656L9.00001 7.99999L12.4008 9.96343L14.2498 9.468C14.5165 9.39652 14.7907 9.55482 14.8622 9.82155C14.9336 10.0883 14.7753 10.3625 14.5086 10.4339L13.6255 10.6705L14.7452 11.317C14.9844 11.4551 15.0663 11.7608 14.9282 12C14.7902 12.2391 14.4844 12.3211 14.2452 12.183L13.1255 11.5366L13.3622 12.4196C13.4336 12.6864 13.2753 12.9605 13.0086 13.032C12.7419 13.1035 12.4677 12.9452 12.3962 12.6784L11.9008 10.8295L8.50001 8.86601V12.7929L9.85357 14.1464C10.0488 14.3417 10.0488 14.6583 9.85357 14.8536C9.65831 15.0488 9.34172 15.0488 9.14646 14.8536L8.50001 14.2071V15.5C8.50001 15.7761 8.27616 16 8.00001 16Z" fill="black"/>
</svg>
