<svg width="16" height="16" viewBox="0 0 16 16" fill="none" xmlns="http://www.w3.org/2000/svg">
<path d="M11.4386 8.95678L11.8901 10.2281C11.9071 10.276 11.951 10.3077 12 10.3077C12.0491 10.3077 12.093 10.276 12.1099 10.2281L12.5615 8.95678C12.9269 7.92758 13.7082 7.11627 14.6992 6.7368L15.9234 6.26792C15.9694 6.25029 16 6.20472 16 6.15377C16 6.10283 15.9694 6.05726 15.9234 6.03963L14.6991 5.57075C13.7081 5.19121 12.9269 4.37997 12.5615 3.35084L12.1099 2.07953C12.093 2.03174 12.0491 2 12 2C11.951 2 11.9071 2.03174 11.8901 2.07953L11.4386 3.35084C11.0731 4.37997 10.2919 5.19121 9.30087 5.57075L8.07659 6.03963C8.03057 6.05726 8 6.10283 8 6.15377C8 6.20472 8.03057 6.25029 8.07659 6.26792L9.3008 6.7368C10.2919 7.11627 11.0731 7.92751 11.4386 8.95678Z" fill="black"/>
<path d="M4.95907 13.0994L5.26008 13.9469C5.2714 13.9788 5.30065 14 5.33336 14C5.36606 14 5.39532 13.9788 5.40663 13.9469L5.70764 13.0994C5.95129 12.4133 6.47213 11.8724 7.1328 11.6194L7.94894 11.3068C7.97962 11.2951 8 11.2647 8 11.2307C8 11.1968 7.97962 11.1664 7.94894 11.1546L7.13275 10.842C6.47208 10.589 5.95125 10.0482 5.70764 9.3621L5.40663 8.51456C5.39532 8.4827 5.36606 8.46154 5.33336 8.46154C5.30065 8.46154 5.2714 8.4827 5.26008 8.51456L4.95907 9.3621C4.71542 10.0482 4.19463 10.589 3.53391 10.842L2.71772 11.1546C2.68704 11.1664 2.66667 11.1968 2.66667 11.2307C2.66667 11.2647 2.68704 11.2951 2.71772 11.3068L3.53387 11.6194C4.19458 11.8724 4.71542 12.4132 4.95907 13.0994Z" fill="black"/>
<path d="M1.52827 6.32267L1.72894 6.8877C1.73649 6.90897 1.75599 6.92308 1.77779 6.92308C1.7996 6.92308 1.8191 6.90897 1.82664 6.8877L2.02732 6.32267C2.18975 5.86525 2.53698 5.50467 2.97742 5.33601L3.52152 5.12762C3.54197 5.11979 3.55556 5.09953 3.55556 5.07689C3.55556 5.05425 3.54197 5.034 3.52152 5.02616L2.97739 4.81777C2.53694 4.64908 2.18972 4.28853 2.02732 3.83114L1.82664 3.26612C1.8191 3.24488 1.7996 3.23077 1.77779 3.23077C1.75599 3.23077 1.73649 3.24488 1.72894 3.26612L1.52827 3.83114C1.36583 4.28853 1.01864 4.64908 0.578165 4.81777L0.0340385 5.02616C0.0135848 5.034 0 5.05425 0 5.07689C0 5.09953 0.0135848 5.11979 0.0340385 5.12762L0.578134 5.33601C1.01861 5.50467 1.36583 5.86522 1.52827 6.32267Z" fill="black"/>
</svg>
