<svg width="16" height="16" viewBox="0 0 16 16" fill="none" xmlns="http://www.w3.org/2000/svg">
<path d="M5.35417 5.11885L7.53829 0.792305C7.63639 0.597985 7.81807 0.500551 7.99998 0.500002C8.18292 0.499451 8.36611 0.596887 8.46476 0.792307L10.6489 5.11885L15.5474 5.81472C15.8145 5.85267 15.9823 6.0781 16 6.31968C16.002 6.34769 16.0021 6.37593 16 6.40411C15.9904 6.53408 15.9362 6.66299 15.8296 6.76462L12.3072 10.1213L13.137 14.8508C13.2148 15.2942 12.7772 15.6413 12.3908 15.4427L8.00153 13.1868L3.6123 15.4427C3.564 15.4675 3.51489 15.4838 3.4661 15.4925C3.12452 15.5531 2.79802 15.2388 2.86609 14.8508L3.69582 10.1213L0.173489 6.76462C0.0551906 6.65189 0.00141225 6.50559 0.00152606 6.36151C0.00161018 6.25501 0.0311372 6.14972 0.0858154 6.06009C0.163007 5.93355 0.290327 5.83821 0.455698 5.81472L5.35417 5.11885ZM7.99998 12.0265C8.07951 12.0263 8.15908 12.045 8.23236 12.0826L11.9181 13.977L11.2239 10.0197C11.1911 9.83316 11.2527 9.64214 11.3866 9.5145L14.2934 6.7444L10.2411 6.16874C10.0736 6.14494 9.92735 6.03795 9.84832 5.88141L8.00153 2.22308L7.99998 2.22614V12.0265Z" fill="black"/>
</svg>
