<svg width="16" height="16" viewBox="0 0 16 16" fill="none" xmlns="http://www.w3.org/2000/svg">
<path fill-rule="evenodd" clip-rule="evenodd" d="M8.07659 6.26792L8.16806 6.30295L9.3008 6.7368C10.2919 7.11627 11.0731 7.9275 11.4386 8.95678L11.8546 10.1281L11.8901 10.2281C11.9071 10.276 11.951 10.3077 12 10.3077C12.0491 10.3077 12.093 10.276 12.1099 10.2281L12.1454 10.1283L12.5615 8.95678C12.9269 7.92758 13.7082 7.11627 14.6992 6.7368L15.9234 6.26792C15.9694 6.25029 16 6.20472 16 6.15377C16 6.10283 15.9694 6.05726 15.9234 6.03963L14.6991 5.57075C13.7081 5.19121 12.9269 4.37997 12.5615 3.35084L12.1099 2.07953C12.093 2.03174 12.0491 2 12 2C11.951 2 11.9071 2.03174 11.8901 2.07953L11.4386 3.35084C11.0731 4.37997 10.2919 5.19121 9.30087 5.57075L8.07659 6.03963C8.03057 6.05726 8 6.10283 8 6.15377C8 6.20472 8.03057 6.25029 8.07659 6.26792ZM10.1569 6.15378C10.9406 6.5895 11.5833 7.25983 12 8.0795C12.4167 7.25988 13.0594 6.58951 13.8431 6.15378C13.0594 5.71805 12.4167 5.04773 12 4.2281C11.5833 5.04771 10.9406 5.71804 10.1569 6.15378ZM5.26008 8.51456L4.95907 9.3621C4.93265 9.43649 4.90298 9.50917 4.87022 9.57997C4.63505 10.0882 4.24099 10.499 3.75275 10.7452C3.68173 10.7811 3.60872 10.8134 3.53391 10.842L2.71772 11.1546C2.68704 11.1664 2.66667 11.1968 2.66667 11.2307C2.66667 11.2647 2.68704 11.2951 2.71772 11.3068L3.53387 11.6194C3.60869 11.6481 3.68172 11.6804 3.75276 11.7162C4.24099 11.9624 4.63505 12.3733 4.87022 12.8815C4.90298 12.9523 4.93265 13.025 4.95907 13.0994L5.26008 13.9469C5.2714 13.9788 5.30065 14 5.33336 14C5.36606 14 5.39532 13.9788 5.40663 13.9469L5.70764 13.0994C5.73406 13.025 5.76374 12.9523 5.79649 12.8815C6.03166 12.3733 6.42572 11.9625 6.91392 11.7162C6.98495 11.6804 7.05798 11.6481 7.1328 11.6194L7.94894 11.3068C7.97962 11.2951 8 11.2647 8 11.2307C8 11.1968 7.97962 11.1664 7.94894 11.1546L7.13275 10.842C7.05795 10.8134 6.98494 10.7811 6.91392 10.7452C6.42571 10.499 6.03164 10.0882 5.79649 9.57998C5.76373 9.50918 5.73406 9.4365 5.70764 9.3621L5.40663 8.51456C5.39532 8.4827 5.36606 8.46154 5.33336 8.46154C5.30065 8.46154 5.2714 8.4827 5.26008 8.51456ZM5.33334 10.5071C5.1388 10.7834 4.90534 11.0274 4.64124 11.2307C4.90535 11.4341 5.13881 11.678 5.33336 11.9544C5.52791 11.678 5.76136 11.4341 6.02546 11.2307C5.76136 11.0274 5.52789 10.7835 5.33334 10.5071ZM0.0340385 5.12762L0.0746924 5.14319L0.578134 5.33601C0.648941 5.36313 0.717339 5.3952 0.782947 5.43183C0.786483 5.4338 0.790012 5.43579 0.793532 5.43779C0.793524 5.43779 0.793539 5.4378 0.793532 5.43779C0.875497 5.48439 0.953058 5.53816 1.02542 5.59829C1.11969 5.67663 1.20517 5.7658 1.2802 5.86406C1.3334 5.93374 1.38135 6.008 1.42345 6.08622C1.42344 6.0862 1.42346 6.08623 1.42345 6.08622C1.42672 6.09229 1.42997 6.09843 1.43317 6.10455C1.46963 6.17433 1.50146 6.24718 1.52827 6.32267L1.72894 6.8877C1.73649 6.90897 1.75599 6.92308 1.77779 6.92308C1.7996 6.92308 1.8191 6.90897 1.82664 6.8877L2.02732 6.32267C2.05412 6.24719 2.08596 6.17434 2.12242 6.10455C2.12561 6.09844 2.12884 6.09235 2.13211 6.08628C2.1321 6.0863 2.13212 6.08626 2.13211 6.08628C2.17421 6.00807 2.22219 5.93375 2.27539 5.86406C2.35042 5.7658 2.43589 5.67664 2.53016 5.5983C2.60251 5.53817 2.68004 5.48442 2.762 5.43782C2.76199 5.43782 2.762 5.43782 2.762 5.43782C2.76553 5.43581 2.76907 5.43382 2.77261 5.43184C2.83822 5.3952 2.90662 5.36313 2.97742 5.33601L3.48086 5.14319L3.52152 5.12762C3.54197 5.11979 3.55556 5.09953 3.55556 5.07689C3.55556 5.05425 3.54197 5.034 3.52152 5.02616L2.97739 4.81777C2.9066 4.79065 2.83821 4.75858 2.77261 4.72195C2.7691 4.71999 2.76559 4.71801 2.76209 4.71602C2.76212 4.71604 2.76207 4.71601 2.76209 4.71602C2.68013 4.66942 2.60252 4.61563 2.53016 4.5555C2.43589 4.47716 2.35041 4.388 2.27539 4.28974C2.22218 4.22006 2.17423 4.14581 2.13214 4.0676C2.13214 4.0676 2.13213 4.06759 2.13214 4.0676C2.12887 4.06152 2.12562 4.0554 2.12243 4.04928C2.08596 3.97949 2.05412 3.90664 2.02732 3.83114L1.82664 3.26612C1.8191 3.24488 1.7996 3.23077 1.77779 3.23077C1.75599 3.23077 1.73649 3.24488 1.72894 3.26612L1.52827 3.83114C1.50146 3.90664 1.46962 3.97949 1.43315 4.04928C1.42996 4.05538 1.42674 4.06147 1.42348 4.06752C1.42349 4.0675 1.42346 4.06755 1.42348 4.06752C1.38138 4.14573 1.33339 4.22006 1.28019 4.28974C1.20516 4.38799 1.11968 4.47716 1.02541 4.5555C0.953046 4.61563 0.875502 4.66939 0.79353 4.71599C0.79356 4.71598 0.793501 4.71601 0.79353 4.71599C0.79004 4.71798 0.786454 4.72 0.782948 4.72196C0.71735 4.75859 0.648962 4.79066 0.578165 4.81777L0.0340385 5.02616C0.0135848 5.034 0 5.05425 0 5.07689C0 5.09953 0.0135848 5.11979 0.0340385 5.12762ZM1.7561 5.07689C1.76338 5.08441 1.77061 5.09198 1.7778 5.0996C1.78498 5.09198 1.79221 5.08442 1.79948 5.0769C1.79221 5.06938 1.78497 5.06181 1.77779 5.0542C1.7706 5.06181 1.76337 5.06937 1.7561 5.07689Z" fill="black"/>
</svg>
