<svg width="16" height="16" viewBox="0 0 16 16" fill="none" xmlns="http://www.w3.org/2000/svg">
<path d="M13.8064 2.10594C13.8064 2.10594 15.1015 1.58651 14.9936 2.84798C14.9576 3.36742 14.6339 5.18541 14.382 7.15184L13.5186 12.9769C13.5186 12.9769 13.4467 13.8302 12.7991 13.9786C12.1516 14.127 11.1803 13.4592 11.0004 13.3108C10.8565 13.1995 8.30227 11.5299 7.40287 10.7136C7.15104 10.491 6.86324 10.0458 7.43884 9.52636C8.04248 8.93346 11.5 5.5 11.5849 5.06468C11.5849 5.06468 5.77095 8.74974 5.24437 9.11826C5.24437 9.11826 4.66877 9.48926 3.58954 9.15536L1.25114 8.41331C1.25114 8.41331 0.387737 7.85678 1.86272 7.30022C5.46024 5.55642 9.88517 3.77552 13.8064 2.10594Z" fill="black"/>
</svg>
