<svg width="16" height="16" viewBox="0 0 16 16" fill="none" xmlns="http://www.w3.org/2000/svg">
<path fill-rule="evenodd" clip-rule="evenodd" d="M12.6316 13.2476C12.6347 13.2469 12.6361 13.2479 12.6463 13.2374C12.6622 13.221 12.6868 13.1866 12.7119 13.1278C12.7363 13.0705 12.7527 13.0102 12.7625 12.962C12.7672 12.939 12.7699 12.9216 12.7712 12.9122M12.7713 12.9133L12.7712 12.9122L12.7716 12.9101L12.7719 12.9075L12.7721 12.9053C12.7733 12.8921 12.7748 12.88 12.7767 12.8669L12.8537 12.348L13.6391 7.04918C13.766 6.05854 13.9108 5.10704 14.0274 4.34401C14.1479 3.55499 14.2302 3.01573 14.2454 2.79617L14.2463 2.78404" fill="black"/>
<path fill-rule="evenodd" clip-rule="evenodd" d="M11.5849 5.06468C11.5849 5.06468 10.6247 5.67329 9.44939 6.42058C7.73264 7.51211 5.55695 8.89951 5.24437 9.11826C5.24437 9.11826 4.66877 9.48926 3.58954 9.15536L1.25114 8.41331C1.25114 8.41331 0.387736 7.85678 1.86272 7.30022C4.58294 5.98167 7.77623 4.6419 10.8671 3.34509C11.864 2.92685 12.8502 2.51309 13.8064 2.10594C13.8064 2.10594 15.1015 1.58651 14.9936 2.84798C14.9761 3.10029 14.8908 3.65899 14.7787 4.39225C14.6601 5.16858 14.5116 6.14058 14.382 7.15184L13.5186 12.9769C13.5186 12.9769 13.4467 13.8302 12.7991 13.9786C12.1516 14.127 11.1803 13.4592 11.0004 13.3108C10.9707 13.2878 10.8382 13.1984 10.6388 13.0638C9.87226 12.5464 8.11657 11.3613 7.40287 10.7136C7.15104 10.491 6.86324 10.0458 7.43884 9.52636C7.76438 9.20661 8.91996 8.06069 9.92894 7.00443C10.7909 6.10212 11.5458 5.26523 11.5849 5.06468ZM14.2481 2.76002L14.2463 2.78404L14.2454 2.79617C14.2302 3.01573 14.1479 3.55499 14.0274 4.34401C13.9108 5.10704 13.766 6.05854 13.6391 7.04918L12.8537 12.348L12.7713 12.9133L12.7712 12.9122C12.7699 12.9216 12.7672 12.939 12.7625 12.962C12.7527 13.0102 12.7363 13.0705 12.7119 13.1278C12.6868 13.1866 12.6622 13.221 12.6463 13.2374C12.6361 13.2479 12.6347 13.2469 12.6316 13.2476C12.6223 13.2497 12.5654 13.2571 12.444 13.2282C12.3278 13.2005 12.1926 13.1491 12.0501 13.0804C11.759 12.9401 11.5219 12.7688 11.4777 12.7323C11.4716 12.7272 11.4654 12.7223 11.4592 12.7175C11.4083 12.6781 11.2454 12.5683 11.0485 12.4354L10.9239 12.3513C10.6509 12.1669 10.293 11.9243 9.91238 11.6603C9.1355 11.1215 8.31396 10.5276 7.90695 10.1582L7.8996 10.1517C7.89457 10.1473 7.88985 10.1429 7.88545 10.1386C7.89925 10.1232 7.91746 10.1047 7.9413 10.0832C7.94915 10.0761 7.95685 10.0688 7.96439 10.0614C8.26893 9.76231 9.28957 8.75042 10.2466 7.75669C10.7242 7.26074 11.1924 6.76275 11.549 6.35775C11.7263 6.15639 11.8844 5.96862 12.0044 5.81074C12.0638 5.73249 12.1221 5.65085 12.1706 5.57173C12.2047 5.51597 12.2879 5.37814 12.321 5.20828C12.3784 4.91427 12.2553 4.61433 12.0079 4.44537C11.7606 4.27641 11.4363 4.27089 11.1833 4.43125L10.2663 5.01304C9.71285 5.36438 8.96934 5.83672 8.20931 6.32062C6.76178 7.24225 5.22134 8.22661 4.85348 8.47684L4.84866 8.47889C4.8233 8.48948 4.76912 8.50919 4.68668 8.52427C4.52661 8.55356 4.23609 8.56991 3.81367 8.43962L2.25322 7.94444C4.93947 6.64553 8.07972 5.328 11.142 4.04317C12.1376 3.62546 13.1249 3.21121 14.0857 2.80218L14.0991 2.79756C14.1182 2.7912 14.1479 2.78208 14.1836 2.77343C14.2062 2.76797 14.2278 2.76352 14.2481 2.76002Z" fill="black"/>
</svg>
