<svg width="16" height="16" viewBox="0 0 16 16" fill="none" xmlns="http://www.w3.org/2000/svg">
<path fill-rule="evenodd" clip-rule="evenodd" d="M11.4586 5.91135C11.9738 6.22426 12.5697 6.44828 13.25 6.52382C13.415 6.54214 13.585 6.55173 13.76 6.55173H14V4.37932H13.76C12.8672 4.37932 12.1892 3.91837 11.6594 3.21746C11.1069 2.48643 10.7978 1.75779 10.6881 1.19497L10.6501 1L8.58286 1.00001V10.5345C8.58286 11.8056 7.58045 12.8276 6.35429 12.8276C5.12812 12.8276 4.12571 11.8056 4.12571 10.5345C4.12571 9.26332 5.12812 8.24138 6.35429 8.24138H6.59429V6.06897H6.35429C6.18172 6.06897 6.01154 6.07925 5.84429 6.09924C3.67624 6.35837 2 8.24926 2 10.5345C2 12.996 3.94484 15 6.35429 15C8.76373 15 10.7086 12.996 10.7086 10.5345V5.34933C10.9364 5.55564 11.1862 5.74592 11.4586 5.91135ZM5.84429 6.85603C4.10538 7.1108 2.75 8.649 2.75 10.5345C2.75 12.6008 4.3778 14.25 6.35429 14.25C8.33077 14.25 9.95857 12.6008 9.95857 10.5345V5.34933C9.95857 5.05273 10.1334 4.78398 10.4045 4.66373C10.6756 4.54348 10.9922 4.59432 11.212 4.79343C11.7549 5.28512 12.4272 5.65789 13.25 5.76819V5.08919C12.3087 4.93764 11.5925 4.37278 11.0611 3.66969C10.5671 3.01603 10.2349 2.34701 10.0547 1.75L9.33286 1.75001V10.5345C9.33286 12.2016 8.01271 13.5776 6.35429 13.5776C4.69586 13.5776 3.37571 12.2016 3.37571 10.5345C3.37571 9.04241 4.43323 7.78351 5.84429 7.53563V6.85603Z" fill="black"/>
</svg>
