<svg width="16" height="16" viewBox="0 0 16 16" fill="none" xmlns="http://www.w3.org/2000/svg">
<path fill-rule="evenodd" clip-rule="evenodd" d="M10.6501 1L10.6881 1.19497C10.7978 1.75779 11.1069 2.48643 11.6594 3.21746C12.1892 3.91837 12.8672 4.37932 13.76 4.37932H14V6.55173H13.76C12.482 6.55173 11.4718 6.04051 10.7086 5.34933V10.5345C10.7086 12.996 8.76373 15 6.35429 15C3.94484 15 2 12.996 2 10.5345C2 8.07297 3.94484 6.06897 6.35429 6.06897H6.59429V8.24138H6.35429C5.12812 8.24138 4.12571 9.26332 4.12571 10.5345C4.12571 11.8056 5.12812 12.8276 6.35429 12.8276C7.58045 12.8276 8.58286 11.8056 8.58286 10.5345V1.00001L10.6501 1Z" fill="black"/>
</svg>
