<svg width="16" height="16" viewBox="0 0 16 16" fill="none" xmlns="http://www.w3.org/2000/svg">
<path d="M15.3044 10.5892C14.956 10.1711 14.5601 9.79626 14.1773 9.43381C14.0412 9.3049 13.9004 9.17164 13.7647 9.03912C13.3752 8.65826 13.361 8.51517 13.6694 8.08256C13.8828 7.78436 14.109 7.48576 14.3278 7.19699C14.5263 6.93499 14.7315 6.66405 14.9282 6.39223L14.9686 6.33635C15.3445 5.81618 15.7333 5.27831 15.9402 4.62946C15.9939 4.45828 16.0503 4.20637 15.9213 3.99572C15.7924 3.78525 15.5424 3.72104 15.3655 3.69105C15.278 3.6762 15.1911 3.67418 15.1104 3.67418L12.6485 3.67242L12.6282 3.67224C12.2559 3.67224 12.0051 3.84765 11.8613 4.20857C11.7241 4.55341 11.5733 4.92062 11.4013 5.26977C11.059 5.96504 10.6242 6.76583 9.99511 7.43371L9.96851 7.46211C9.89421 7.54196 9.81005 7.63237 9.74852 7.63237C9.7391 7.63237 9.72884 7.63057 9.71721 7.62691C9.5869 7.57613 9.49943 7.26067 9.5034 7.11393C9.50344 7.1119 9.50348 7.10988 9.50348 7.10785L9.50177 4.26238C9.50177 4.25252 9.50106 4.24274 9.49978 4.23297C9.43716 3.77041 9.29843 3.48247 8.77426 3.37981C8.76034 3.37704 8.74612 3.37567 8.73194 3.37567H6.17203C5.75497 3.37567 5.52516 3.54518 5.30914 3.7989C5.25083 3.86672 5.12946 4.00792 5.18962 4.17919C5.25066 4.35302 5.4488 4.39019 5.51331 4.40226C5.83358 4.46321 6.0141 4.6591 6.06523 5.00139C6.1545 5.59576 6.16547 6.23016 6.09976 6.99792C6.08144 7.2113 6.04519 7.3761 5.98547 7.5169C5.9716 7.54975 5.92241 7.65699 5.87225 7.65704C5.8563 7.65704 5.81019 7.65078 5.72621 7.59291C5.52763 7.45687 5.38234 7.26274 5.21296 7.02294C4.63673 6.20858 4.15312 5.31148 3.73429 4.27974C3.57896 3.89993 3.28887 3.6873 2.91708 3.68105C2.50856 3.67484 2.13817 3.67184 1.78492 3.67184C1.39895 3.67184 1.04112 3.67541 0.691704 3.68268C0.39258 3.68796 0.185677 3.77763 0.0768084 3.94939C-0.0322361 4.12128 -0.0251456 4.34708 0.0979039 4.62039C1.08292 6.81022 1.97602 8.40242 2.9938 9.78318C3.70694 10.7493 4.42225 11.4181 5.24467 11.8876C6.11112 12.3833 7.08213 12.6243 8.21309 12.6243C8.3413 12.6243 8.47386 12.6212 8.60752 12.6149C9.2647 12.5829 9.5085 12.345 9.53933 11.7052C9.554 11.3782 9.58976 11.0352 9.75051 10.7427C9.85198 10.5585 9.94658 10.5585 9.97767 10.5585C10.0376 10.5585 10.1118 10.586 10.1916 10.6377C10.3346 10.7311 10.4573 10.8561 10.5578 10.9654C10.6525 11.0692 10.746 11.1741 10.8397 11.279C11.0419 11.5054 11.2509 11.7395 11.4692 11.9615C11.9472 12.4477 12.4737 12.6616 13.0784 12.6152H15.3356C15.3404 12.6152 15.3452 12.615 15.35 12.6147C15.5749 12.5998 15.7697 12.4751 15.8844 12.2724C16.0266 12.0213 16.0237 11.701 15.8768 11.4154C15.7101 11.0924 15.4938 10.8164 15.3044 10.5892Z" fill="black"/>
</svg>
