<svg width="16" height="16" viewBox="0 0 16 16" fill="none" xmlns="http://www.w3.org/2000/svg">
<path fill-rule="evenodd" clip-rule="evenodd" d="M12.6485 3.67242L12.6282 3.67224C12.2559 3.67224 12.0051 3.84765 11.8613 4.20857C11.7241 4.55341 11.5733 4.92062 11.4013 5.26977C11.3649 5.34383 11.3273 5.41909 11.2887 5.49526C11.0173 6.02946 10.6884 6.60837 10.2592 7.13259L10.2563 7.13622C10.1731 7.23768 10.0861 7.33709 9.99511 7.43371L9.96851 7.46211C9.89421 7.54196 9.81005 7.63237 9.74852 7.63237C9.7391 7.63237 9.72884 7.63057 9.71721 7.62691C9.5869 7.57613 9.49943 7.26067 9.5034 7.11393L9.50348 7.10785L9.50236 5.25425L9.50177 4.26238C9.50177 4.25252 9.50106 4.24274 9.49978 4.23297C9.43716 3.77041 9.29843 3.48247 8.77426 3.37981C8.76034 3.37704 8.74612 3.37567 8.73194 3.37567H6.17203C5.75497 3.37567 5.52516 3.54518 5.30914 3.7989C5.25083 3.86672 5.12946 4.00792 5.18962 4.17919C5.25066 4.35302 5.4488 4.39019 5.51331 4.40226C5.83358 4.46321 6.0141 4.6591 6.06523 5.00139C6.15219 5.58036 6.16485 6.19732 6.10471 6.93852L6.10372 6.9507L6.09976 6.99792C6.09807 7.01759 6.09623 7.03685 6.09423 7.05571L6.09384 7.05936C6.0741 7.24341 6.03933 7.38992 5.98547 7.5169C5.9716 7.54975 5.92241 7.65699 5.87225 7.65704C5.8563 7.65704 5.81019 7.65078 5.72621 7.59291C5.60005 7.50649 5.4954 7.39661 5.39242 7.26648L5.39108 7.26479C5.36849 7.2362 5.34597 7.20664 5.32333 7.17613L5.31527 7.16525C5.28174 7.11983 5.24786 7.07235 5.21296 7.02294C4.63673 6.20858 4.15312 5.31148 3.73429 4.27974C3.57896 3.89993 3.28887 3.6873 2.91708 3.68105C2.50856 3.67484 2.13817 3.67184 1.78492 3.67184C1.39895 3.67184 1.04112 3.67541 0.691704 3.68268C0.39258 3.68796 0.185677 3.77763 0.0768084 3.94939C-0.0322361 4.12128 -0.0251456 4.34708 0.0979039 4.62039C1.08292 6.81022 1.97602 8.40242 2.99379 9.78318C3.70694 10.7493 4.42225 11.4181 5.24467 11.8876C6.11112 12.3833 7.08213 12.6243 8.21309 12.6243C8.3413 12.6243 8.47386 12.6212 8.60752 12.6149C9.2647 12.5829 9.5085 12.345 9.53933 11.7052C9.554 11.3782 9.58976 11.0352 9.75051 10.7427C9.85198 10.5585 9.94658 10.5585 9.97767 10.5585C10.0376 10.5585 10.1118 10.586 10.1916 10.6377C10.3346 10.7311 10.4573 10.8561 10.5578 10.9654C10.6502 11.0668 10.7417 11.1692 10.8331 11.2716L10.8397 11.279C11.0419 11.5054 11.2509 11.7395 11.4692 11.9615C11.9472 12.4477 12.4737 12.6616 13.0784 12.6152H15.3356C15.3404 12.6152 15.3452 12.615 15.35 12.6147C15.5749 12.5998 15.7697 12.4751 15.8844 12.2724C16.0266 12.0213 16.0237 11.701 15.8768 11.4154C15.7101 11.0924 15.4938 10.8164 15.3044 10.5892C14.9613 10.1773 14.5719 9.80741 14.1944 9.45002L14.1773 9.43381L14.1752 9.43185C14.0397 9.30355 13.8997 9.17097 13.7647 9.03912C13.3752 8.65826 13.361 8.51517 13.6694 8.08256L13.7203 8.01172C13.9185 7.7372 14.1262 7.46304 14.3277 7.19719L14.3284 7.19625C14.5267 6.93449 14.7317 6.6638 14.9282 6.39223L14.9689 6.33596C15.3447 5.81592 15.7333 5.27815 15.9402 4.62946C15.9939 4.45828 16.0503 4.20637 15.9213 3.99572C15.7924 3.78525 15.5424 3.72104 15.3655 3.69105C15.278 3.6762 15.1911 3.67418 15.1104 3.67418L12.6485 3.67242ZM13.6617 9.97845C14.0497 10.3458 14.4128 10.6908 14.7281 11.0693C14.9088 11.286 15.0821 11.5111 15.21 11.7587C15.2338 11.8051 15.2394 11.8408 15.239 11.8652H13.0497L13.021 11.8674C12.6658 11.8946 12.3484 11.7861 12.004 11.4356C11.8004 11.2286 11.6032 11.008 11.3991 10.7794L11.3916 10.771L11.3903 10.7695C11.3157 10.686 11.2391 10.6002 11.1614 10.5144L11.112 10.4601L11.1097 10.4576C11.0027 10.3413 10.8275 10.1572 10.6015 10.0096L10.5993 10.0082C10.4639 9.92053 10.2446 9.80848 9.97767 9.80848C9.91098 9.80848 9.72483 9.81209 9.51776 9.93068C9.39039 10.0036 9.28753 10.1011 9.20439 10.21C9.16254 10.2648 9.1257 10.3226 9.09324 10.3815C8.84264 10.8374 8.80528 11.3337 8.79015 11.6701C8.78613 11.7527 8.77797 11.8076 8.77045 11.8421C8.73167 11.8512 8.66875 11.861 8.57202 11.8657C8.44983 11.8715 8.32911 11.8743 8.21309 11.8743C7.19511 11.8743 6.35516 11.6589 5.61651 11.2363C4.90564 10.8305 4.26436 10.2416 3.59722 9.33778C2.6386 8.03722 1.78458 6.52756 0.834836 4.43004C1.13841 4.42455 1.45065 4.42184 1.78492 4.42184C2.13364 4.42184 2.49993 4.4248 2.90487 4.43095C2.94486 4.43168 2.95776 4.44103 2.96359 4.4453C2.97269 4.45197 3.00572 4.47987 3.03981 4.56292C3.47766 5.64132 3.98765 6.58963 4.60036 7.45564C4.7625 7.68518 4.97696 7.9882 5.30067 8.2105C5.46381 8.32292 5.65668 8.40704 5.87225 8.40704C6.15188 8.40679 6.3375 8.26252 6.40771 8.20004C6.48879 8.1279 6.5417 8.05311 6.56941 8.01091C6.62661 7.9238 6.66303 7.84028 6.67617 7.8092C6.77626 7.573 6.82447 7.32459 6.84703 7.06188C6.91639 6.2514 6.90695 5.5564 6.807 4.89058C6.76778 4.62806 6.6716 4.35586 6.47508 4.12567H8.67393C8.69267 4.13051 8.70657 4.13504 8.71643 4.1387L8.71947 4.14779C8.72952 4.17916 8.74075 4.22681 8.75179 4.30013L8.7523 5.15305L8.75348 7.10187C8.74979 7.29241 8.79601 7.50021 8.85511 7.66273C8.88731 7.75126 8.93558 7.86085 9.00761 7.96703C9.07042 8.0596 9.20687 8.23298 9.44491 8.32573L9.46831 8.33485L9.49228 8.34239C9.55534 8.36221 9.64325 8.38237 9.74852 8.38237C9.94026 8.38237 10.0855 8.31501 10.1595 8.27436C10.2397 8.23028 10.3021 8.18064 10.3418 8.14664C10.4133 8.08537 10.4789 8.01471 10.5113 7.97977L10.5168 7.97385L10.5176 7.97302L10.541 7.94796L10.5419 7.94704C11.2509 7.19402 11.7255 6.30925 12.0741 5.60124L12.5582 4.48588C12.5707 4.45445 12.5815 4.43517 12.5883 4.42457C12.5965 4.42344 12.6087 4.42234 12.6257 4.42225L12.642 4.42241L15.1104 4.42418C15.1622 4.42418 15.1947 4.42545 15.2172 4.42757C15.0504 4.93307 14.7407 5.37119 14.3607 5.89706L14.3206 5.95257C14.1295 6.2166 13.9292 6.48107 13.73 6.74415L13.7269 6.74819C13.6308 6.87498 13.5319 7.00556 13.4324 7.13831C13.3075 7.30515 13.1816 7.47545 13.0595 7.64612L13.0587 7.64718C12.9202 7.84149 12.664 8.20235 12.709 8.65455C12.7532 9.09867 13.0677 9.40657 13.2407 9.57568C13.3799 9.71161 13.5234 9.84756 13.6577 9.97466L13.6617 9.97845Z" fill="black"/>
</svg>
