<svg width="16" height="16" viewBox="0 0 16 16" fill="none" xmlns="http://www.w3.org/2000/svg">
<path d="M12.9551 3.03564C11.642 1.72179 9.89117 1 8.02673 1C4.18759 1 1.06014 4.11333 1.0568 7.93514C1.0568 9.15918 1.37757 10.35 1.98568 11.4044L1 15L4.69547 14.0354C5.71456 14.5876 6.86062 14.8803 8.02673 14.8803H8.03007C11.8692 14.8803 14.9967 11.7669 15 7.94179C14.9967 6.0891 14.2716 4.34616 12.9551 3.03564ZM8.02673 13.7061C6.98425 13.7061 5.96516 13.4267 5.07637 12.9012L4.86587 12.7748L2.67399 13.3469L3.25871 11.2181L3.12172 10.9986C2.54033 10.0805 2.23628 9.01948 2.23628 7.93181C2.23628 4.75861 4.8358 2.17082 8.03007 2.17082C9.57709 2.17082 11.0305 2.77287 12.1265 3.86054C13.2191 4.95153 13.8205 6.39843 13.8205 7.93847C13.8172 11.1216 11.2177 13.7061 8.02673 13.7061ZM11.2043 9.38869C11.0305 9.30221 10.1752 8.88311 10.0148 8.82324C9.85441 8.76669 9.73747 8.73676 9.62387 8.90972C9.50692 9.08268 9.17279 9.47517 9.07255 9.58826C8.97231 9.70468 8.86873 9.71799 8.69499 9.6315C8.52124 9.54502 7.9599 9.36208 7.29499 8.77002C6.77709 8.311 6.42959 7.74222 6.32601 7.56926C6.22578 7.39629 6.31599 7.30316 6.40286 7.21668C6.47971 7.14018 6.57661 7.01378 6.66348 6.91399C6.75036 6.81421 6.78043 6.74103 6.83723 6.62461C6.89403 6.5082 6.8673 6.40841 6.82387 6.32193C6.78043 6.23545 6.43294 5.38061 6.28592 5.03469C6.14558 4.69541 6.00191 4.74198 5.89499 4.73866C5.79475 4.732 5.6778 4.732 5.56086 4.732C5.44391 4.732 5.2568 4.77524 5.09642 4.94821C4.93604 5.12117 4.48831 5.54027 4.48831 6.39511C4.48831 7.24994 5.11313 8.07151 5.2 8.18793C5.28687 8.30435 6.42625 10.0539 8.17375 10.8057C8.58807 10.9853 8.91217 11.0917 9.16611 11.1715C9.58377 11.3046 9.96134 11.2846 10.2621 11.2414C10.5962 11.1915 11.2912 10.8223 11.4382 10.4165C11.5819 10.0107 11.5819 9.66477 11.5384 9.59159C11.495 9.51841 11.378 9.47517 11.2043 9.38869Z" fill="black"/>
</svg>
