<svg width="16" height="16" viewBox="0 0 16 16" fill="none" xmlns="http://www.w3.org/2000/svg">
<path fill-rule="evenodd" clip-rule="evenodd" d="M12.9551 3.03564C11.642 1.72179 9.89117 1 8.02673 1C4.18759 1 1.06014 4.11333 1.0568 7.93514C1.0568 9.15918 1.37757 10.35 1.98568 11.4044L1 15L4.69547 14.0354C5.71456 14.5876 6.86062 14.8803 8.02673 14.8803H8.03007C11.8692 14.8803 14.9967 11.7669 15 7.94179C14.9967 6.0891 14.2716 4.34616 12.9551 3.03564ZM10.0148 8.82324C10.1752 8.88311 11.0305 9.30221 11.2043 9.38869C11.2385 9.40573 11.2706 9.4211 11.3003 9.43534C11.4213 9.49338 11.5035 9.53283 11.5384 9.59159C11.5819 9.66477 11.5819 10.0107 11.4382 10.4165C11.2912 10.8223 10.5962 11.1915 10.2621 11.2414C9.96134 11.2846 9.58377 11.3046 9.16611 11.1715C8.91217 11.0917 8.58807 10.9853 8.17375 10.8057C6.53674 10.1015 5.43338 8.5216 5.22899 8.22893C5.21519 8.20918 5.20549 8.19529 5.2 8.18793C5.19859 8.18605 5.19705 8.18398 5.19536 8.18172C5.09305 8.0449 4.48831 7.2361 4.48831 6.39511C4.48831 5.59121 4.88426 5.17267 5.06484 4.98179C5.07628 4.96969 5.08686 4.95851 5.09642 4.94821C5.2568 4.77524 5.44391 4.732 5.56086 4.732C5.6778 4.732 5.79475 4.732 5.89499 4.73866C5.90707 4.73903 5.91961 4.73877 5.93257 4.7385C6.03433 4.73638 6.16144 4.73374 6.28592 5.03469C6.34798 5.18073 6.44578 5.41747 6.54135 5.6488C6.67215 5.96544 6.79877 6.27196 6.82387 6.32193C6.8673 6.40841 6.89403 6.5082 6.83723 6.62461C6.83052 6.63837 6.82418 6.65152 6.81808 6.66418C6.77253 6.75869 6.7401 6.826 6.66348 6.91399C6.63213 6.95001 6.59947 6.98949 6.56691 7.02885C6.50927 7.09852 6.45197 7.16779 6.40286 7.21668C6.31599 7.30316 6.22578 7.39629 6.32601 7.56926C6.42959 7.74222 6.77709 8.311 7.29499 8.77002C7.85177 9.26579 8.33592 9.4747 8.58068 9.58031C8.62822 9.60082 8.66673 9.61744 8.69499 9.6315C8.86873 9.71799 8.97231 9.70468 9.07255 9.58826C9.17279 9.47517 9.50692 9.08268 9.62387 8.90972C9.73747 8.73676 9.85441 8.76669 10.0148 8.82324Z" fill="black"/>
</svg>
