<svg width="16" height="16" viewBox="0 0 16 16" fill="none" xmlns="http://www.w3.org/2000/svg">
<path fill-rule="evenodd" clip-rule="evenodd" d="M6.7751 4.94227C6.54308 4.80782 6.25693 4.80748 6.02458 4.94138C5.79224 5.07528 5.64907 5.32304 5.64907 5.5912V10.4084C5.64907 10.6766 5.79223 10.9243 6.02457 11.0582C6.2569 11.1921 6.54305 11.1918 6.77507 11.0574L10.9319 8.64889C11.1633 8.51477 11.3058 8.2675 11.3059 7.99997C11.3059 7.73244 11.1634 7.48516 10.9319 7.35102L6.7751 4.94227ZM10.5559 7.99995L6.39907 10.4084V5.5912L10.5559 7.99995Z" fill="black"/>
<path fill-rule="evenodd" clip-rule="evenodd" d="M14.2503 2.71535C14.9388 2.9 15.4809 3.44416 15.6649 4.1349C15.7966 4.62836 15.8746 5.32963 15.9247 6.00535C15.9905 6.91947 15.9981 7.77488 15.999 7.96204V8.0376C15.9981 8.23182 15.9899 9.14573 15.917 10.098C15.8689 10.6897 15.8184 11.2896 15.6649 11.8647C15.4809 12.5555 14.9388 13.0998 14.2503 13.2843C13.0899 13.5964 8.68113 13.6182 8.06958 13.6198H7.92849C7.3172 13.6182 2.90931 13.5967 1.74786 13.2843C1.05943 13.0998 0.517329 12.5555 0.333336 11.8647C0.17975 11.2896 0.129238 10.6897 0.0810704 10.098C0.0108565 9.18036 0.000664168 8.29834 -0.000815365 8.06161C-0.00103029 8.02041 -0.0010303 7.97922 -0.000815365 7.93803C0.000524589 7.72364 0.00901097 6.97999 0.062758 6.1599C0.111958 5.43234 0.191532 4.66596 0.333336 4.1349C0.517329 3.44416 1.05943 2.9 1.74786 2.71535C2.87183 2.41318 7.03624 2.38324 7.85769 2.38022C7.95192 2.37993 8.04615 2.37993 8.14038 2.38022C8.96218 2.38324 13.1273 2.41344 14.2503 2.71535ZM15.1767 6.05993C15.2406 6.94819 15.2481 7.78305 15.249 7.96503V8.03461C15.2481 8.22381 15.24 9.11487 15.1694 10.0389C15.1205 10.6396 15.0735 11.1722 14.9402 11.6713C14.825 12.1039 14.4842 12.4451 14.0562 12.5598C13.8412 12.6177 13.4117 12.6742 12.8224 12.7204C12.2521 12.7652 11.5854 12.7968 10.9288 12.8189C9.61723 12.8632 8.37165 12.869 8.0681 12.8698L7.93037 12.8698C7.62691 12.869 6.38124 12.8632 5.06976 12.819C4.41325 12.7969 3.74665 12.7653 3.17626 12.7206C2.58698 12.6743 2.15788 12.6179 1.94265 12.56C1.51459 12.4453 1.17331 12.1043 1.05807 11.6717C0.924811 11.1727 0.877656 10.6396 0.828749 10.039C0.76647 9.17602 0.751193 8.72056 0.749176 7.94235C0.750481 7.73417 0.758819 7.0079 0.811106 6.20971C0.860259 5.48315 0.936818 4.78204 1.05795 4.32839C1.17317 3.89583 1.5139 3.55461 1.94216 3.43975C2.14941 3.38403 2.55822 3.32901 3.12157 3.2835C3.66701 3.23944 4.30611 3.20776 4.94285 3.18514C6.21495 3.13994 7.45182 3.13173 7.86003 3.13023C7.95242 3.12994 8.04566 3.12994 8.13805 3.13023C8.5464 3.13173 9.78355 3.14 11.0558 3.18523C11.6926 3.20787 12.3317 3.23956 12.8771 3.28361C13.4404 3.32911 13.8491 3.3841 14.0561 3.43975C14.4843 3.55461 14.825 3.89575 14.9402 4.32832C15.0522 4.74775 15.1268 5.38706 15.1767 6.05993Z" fill="black"/>
</svg>
