<svg width="16" height="16" viewBox="0 0 16 16" fill="none" xmlns="http://www.w3.org/2000/svg">
<path d="M8.14035 2.38027C8.96214 2.38329 13.1273 2.41348 14.2503 2.71539C14.9387 2.90003 15.4808 3.44419 15.6648 4.13492C15.7965 4.62837 15.8745 5.32963 15.9246 6.00534C15.9904 6.91945 15.998 7.77485 15.9989 7.962C15.999 7.98719 15.999 8.01238 15.9989 8.03756C15.998 8.23179 15.9898 9.14568 15.9169 10.098C15.8688 10.6896 15.8183 11.2895 15.6648 11.8646C15.4808 12.5554 14.9387 13.0997 14.2503 13.2842C13.0898 13.5963 8.68109 13.6181 8.06955 13.6196C8.02252 13.6197 7.97549 13.6197 7.92846 13.6196C7.31717 13.6181 2.90933 13.5965 1.74789 13.2842C1.05947 13.0997 0.517371 12.5554 0.333379 11.8646C0.179795 11.2895 0.129284 10.6896 0.0811165 10.098C0.0109033 9.18031 0.000711116 8.2983 -0.000768403 8.06157C-0.000983327 8.02038 -0.000983336 7.97919 -0.000768403 7.93799C0.000571538 7.72361 0.00905783 6.97997 0.0628044 6.15989C0.112004 5.43234 0.191577 4.66598 0.333379 4.13492C0.517371 3.44419 1.05947 2.90003 1.74789 2.71539C2.87185 2.41322 7.03622 2.38329 7.85767 2.38027C7.95189 2.37997 8.04612 2.37997 8.14035 2.38027ZM6.39905 5.5912V10.4084L10.5558 7.99991L6.39905 5.5912Z" fill="black"/>
</svg>
